<svg width="32" height="32" viewBox="0 0 32 32" fill="none" xmlns="http://www.w3.org/2000/svg">
<path d="M18.8284 26.8284L19.3587 27.3588H19.3587L18.8284 26.8284ZM17.5307 27.6955L17.2437 27.0026L17.5307 27.6955ZM14.4692 27.6955L14.1822 28.3884L14.4692 27.6955ZM13.1716 26.8284L12.6412 27.3588L13.1716 26.8284ZM12.3045 25.5307L11.6116 25.8177L12.3045 25.5307ZM12 22.6667V21.9167C11.5858 21.9167 11.25 22.2525 11.25 22.6667H12ZM20.75 22.6667C20.75 22.2525 20.4142 21.9167 20 21.9167C19.5858 21.9167 19.25 22.2525 19.25 22.6667H20.75ZM24.75 12C24.75 11.5858 24.4142 11.25 24 11.25C23.5858 11.25 23.25 11.5858 23.25 12H24.75ZM26.6666 22.6667V23.4167C26.9155 23.4167 27.1482 23.2932 27.2877 23.0871C27.4272 22.8811 27.4554 22.6192 27.363 22.3881L26.6666 22.6667ZM5.33331 22.6667L4.66249 22.3313C4.54625 22.5637 4.55867 22.8399 4.69533 23.061C4.83198 23.2821 5.07338 23.4167 5.33331 23.4167V22.6667ZM19.6191 5.74559C19.976 5.95592 20.4358 5.83716 20.6461 5.48032C20.8564 5.12349 20.7377 4.6637 20.3808 4.45337L19.6191 5.74559ZM7.99998 23.4167C8.41419 23.4167 8.74998 23.0809 8.74998 22.6667C8.74998 22.2525 8.41419 21.9167 7.99998 21.9167V23.4167ZM19.25 24C19.25 24.4268 19.1659 24.8494 19.0026 25.2437L20.3884 25.8177C20.6271 25.2414 20.75 24.6238 20.75 24H19.25ZM19.0026 25.2437C18.8393 25.638 18.5999 25.9963 18.2981 26.2981L19.3587 27.3588C19.7998 26.9177 20.1497 26.394 20.3884 25.8177L19.0026 25.2437ZM18.2981 26.2981C17.9963 26.5999 17.638 26.8393 17.2437 27.0026L17.8177 28.3884C18.394 28.1497 18.9177 27.7998 19.3587 27.3588L18.2981 26.2981ZM17.2437 27.0026C16.8494 27.1659 16.4268 27.25 16 27.25V28.75C16.6238 28.75 17.2414 28.6271 17.8177 28.3884L17.2437 27.0026ZM16 27.25C15.5732 27.25 15.1506 27.1659 14.7563 27.0026L14.1822 28.3884C14.7585 28.6271 15.3762 28.75 16 28.75V27.25ZM14.7563 27.0026C14.3619 26.8393 14.0037 26.5999 13.7019 26.2981L12.6412 27.3588C13.0823 27.7998 13.6059 28.1497 14.1822 28.3884L14.7563 27.0026ZM13.7019 26.2981C13.4001 25.9963 13.1607 25.638 12.9974 25.2437L11.6116 25.8177C11.8503 26.394 12.2001 26.9177 12.6412 27.3588L13.7019 26.2981ZM12.9974 25.2437C12.834 24.8494 12.75 24.4268 12.75 24H11.25C11.25 24.6238 11.3728 25.2414 11.6116 25.8177L12.9974 25.2437ZM12.75 24V22.6667H11.25V24H12.75ZM20.75 24V22.6667H19.25V24H20.75ZM23.25 12C23.25 14.1222 23.9485 16.8829 24.6165 19.0539C24.9544 20.1521 25.292 21.1227 25.5451 21.8188C25.6718 22.1671 25.7775 22.4473 25.8518 22.641C25.889 22.7379 25.9183 22.8132 25.9385 22.8646C25.9486 22.8904 25.9564 22.9101 25.9617 22.9237C25.9644 22.9304 25.9665 22.9356 25.9679 22.9392C25.9686 22.941 25.9692 22.9424 25.9696 22.9434C25.9698 22.9439 25.9699 22.9443 25.9701 22.9446C25.9701 22.9448 25.9702 22.9449 25.9702 22.945C25.9702 22.9451 25.9703 22.9452 26.6666 22.6667C27.363 22.3881 27.363 22.3882 27.363 22.3882C27.363 22.3882 27.363 22.3882 27.363 22.3881C27.363 22.388 27.3629 22.3878 27.3627 22.3875C27.3625 22.3869 27.3621 22.3858 27.3615 22.3844C27.3604 22.3816 27.3586 22.3772 27.3563 22.3712C27.3515 22.3592 27.3444 22.3411 27.3349 22.317C27.316 22.2689 27.2881 22.197 27.2523 22.1038C27.1808 21.9173 27.0782 21.6454 26.9548 21.3062C26.708 20.6273 26.3789 19.6812 26.0501 18.6128C25.3848 16.4504 24.75 13.8778 24.75 12H23.25ZM26.6666 21.9167H12V23.4167H26.6666V21.9167ZM5.33331 22.6667C6.00413 23.0021 6.00421 23.0019 6.0043 23.0018C6.00434 23.0017 6.00443 23.0015 6.00452 23.0013C6.00469 23.001 6.0049 23.0005 6.00515 23C6.00564 22.999 6.0063 22.9977 6.00712 22.9961C6.00876 22.9928 6.01103 22.9882 6.01391 22.9823C6.01967 22.9706 6.02788 22.9538 6.03838 22.9321C6.05938 22.8887 6.08953 22.8257 6.12753 22.7442C6.20352 22.5814 6.31096 22.345 6.43934 22.0454C6.69594 21.4467 7.03709 20.5937 7.37816 19.5705C8.0573 17.5331 8.74998 14.7801 8.74998 12H7.24998C7.24998 14.5532 6.60932 17.1336 5.95513 19.0962C5.62954 20.0729 5.30402 20.8866 5.06062 21.4546C4.939 21.7383 4.8381 21.9602 4.76826 22.1099C4.73334 22.1847 4.70621 22.2415 4.68814 22.2788C4.67911 22.2975 4.67235 22.3113 4.66802 22.3201C4.66585 22.3245 4.6643 22.3276 4.66337 22.3295C4.66291 22.3304 4.6626 22.331 4.66245 22.3313C4.66238 22.3315 4.66234 22.3316 4.66235 22.3315C4.66235 22.3315 4.66239 22.3315 4.66239 22.3315C4.66244 22.3314 4.66249 22.3313 5.33331 22.6667ZM16 3.25C11.2284 3.25 7.24998 7.22845 7.24998 12H8.74998C8.74998 8.05688 12.0569 4.75 16 4.75V3.25ZM20.3808 4.45337C19.0885 3.69161 17.5886 3.25 16 3.25V4.75C17.3075 4.75 18.546 5.11302 19.6191 5.74559L20.3808 4.45337ZM7.99998 21.9167H5.33331V23.4167H7.99998V21.9167Z" fill="#9FA0A3"/>
</svg>
