<svg width="26" height="26" viewBox="0 0 26 26" fill="none" xmlns="http://www.w3.org/2000/svg">
<path d="M16.4167 2.33333C16.4167 1.91912 16.0809 1.58333 15.6667 1.58333C15.2525 1.58333 14.9167 1.91912 14.9167 2.33333H16.4167ZM18.6568 3.57188L19.1871 4.10221L19.1871 4.10221L18.6568 3.57188ZM18.1204 4.1083L17.59 3.57797V3.57797L18.1204 4.1083ZM22.428 5.4575L22.9584 4.92717V4.92717L22.428 5.4575ZM20.5424 3.57188L20.0121 4.10221V4.10221L20.5424 3.57188ZM21.8917 7.87946L22.422 8.40979V8.40979L21.8917 7.87946ZM22.428 7.34311L21.8977 6.81278V6.81279L22.428 7.34311ZM23.6667 10.3333V9.58333H23.6667L23.6667 10.3333ZM22.9083 10.3333V11.0833H22.9083L22.9083 10.3333ZM21.8977 19.1872C22.1906 19.4801 22.6655 19.4801 22.9584 19.1872C23.2513 18.8943 23.2513 18.4194 22.9584 18.1265L21.8977 19.1872ZM21.8917 18.1205L21.3614 18.6508L21.3614 18.6508L21.8917 18.1205ZM21.6236 16.5763L20.9309 16.2887L21.6236 16.5763ZM21.6236 9.42366L22.3163 9.13607L21.6236 9.42366ZM16.5763 4.37638L16.8639 3.68371L16.5763 4.37638ZM4.1083 18.1204L4.63863 18.6507L4.63863 18.6507L4.1083 18.1204ZM3.57186 18.6568L4.10219 19.1872L3.57186 18.6568ZM3.09169 10.3333V9.58333H3.09169L3.09169 10.3333ZM2.33333 10.3333V11.0833H2.33333L2.33333 10.3333ZM3.57188 7.34312L3.04155 7.87345L3.57188 7.34312ZM4.10831 7.87955L4.63864 7.34922L4.63864 7.34922L4.10831 7.87955ZM5.4575 3.57188L5.98783 4.10221H5.98783L5.4575 3.57188ZM3.57188 5.4575L4.10221 5.98783V5.98783L3.57188 5.4575ZM7.87954 4.10831L7.34921 4.63864L7.34921 4.63864L7.87954 4.10831ZM7.34311 3.57188L7.87345 3.04155L7.87345 3.04155L7.34311 3.57188ZM9.42368 4.37639L9.71127 5.06906L9.42368 4.37639ZM4.37639 9.42369L5.06906 9.71127H5.06906L4.37639 9.42369ZM4.37638 16.5763L5.06905 16.2887V16.2887L4.37638 16.5763ZM3.04153 21.0728C3.33442 21.3657 3.80929 21.3657 4.10219 21.0728C4.39508 20.7799 4.39508 20.305 4.10219 20.0121L3.04153 21.0728ZM11.6667 1.75C12.0809 1.75 12.4167 1.41421 12.4167 1C12.4167 0.585786 12.0809 0.25 11.6667 0.25V1.75ZM18.1204 21.8917L18.6507 21.3614V21.3614L18.1204 21.8917ZM18.6568 22.4281L18.1264 22.9584V22.9584L18.6568 22.4281ZM9.42359 21.6236L9.136 22.3163L9.42359 21.6236ZM7.34906 21.3614C7.05617 21.6542 7.05617 22.1291 7.34906 22.422C7.64196 22.7149 8.11683 22.7149 8.40972 22.422L7.34906 21.3614ZM16.5762 21.6236L16.8638 22.3163L16.5762 21.6236ZM21.0727 22.9584C21.3656 22.6655 21.3656 22.1906 21.0727 21.8977C20.7798 21.6048 20.3049 21.6048 20.012 21.8977L21.0727 22.9584ZM16.4167 13C16.4167 12.5858 16.0809 12.25 15.6667 12.25C15.2525 12.25 14.9167 12.5858 14.9167 13H16.4167ZM13 11.0833C13.4142 11.0833 13.75 10.7475 13.75 10.3333C13.75 9.91912 13.4142 9.58333 13 9.58333V11.0833ZM16.4167 3.09172V2.33333H14.9167V3.09172H16.4167ZM18.1265 3.04155L17.59 3.57797L18.6507 4.63863L19.1871 4.10221L18.1265 3.04155ZM22.9584 4.92717L21.0727 3.04155L20.0121 4.10221L21.8977 5.98783L22.9584 4.92717ZM22.422 8.40979L22.9584 7.87344L21.8977 6.81279L21.3614 7.34914L22.422 8.40979ZM23.6667 9.58333L22.9083 9.58333L22.9083 11.0833L23.6667 11.0833L23.6667 9.58333ZM25.75 14.3333V11.6667H24.25V14.3333H25.75ZM22.9083 16.4167H23.6667V14.9167H22.9083V16.4167ZM22.9584 18.1265L22.422 17.5901L21.3614 18.6508L21.8977 19.1872L22.9584 18.1265ZM20.9309 16.2887C20.612 17.0568 20.7146 18.0041 21.3614 18.6508L22.422 17.5901C22.2617 17.4298 22.1976 17.1498 22.3163 16.8639L20.9309 16.2887ZM22.9083 14.9167C21.9889 14.9167 21.2472 15.5269 20.9309 16.2887L22.3163 16.8639C22.4374 16.5721 22.6869 16.4167 22.9083 16.4167V14.9167ZM24.25 14.3333C24.25 14.6555 23.9888 14.9167 23.6667 14.9167V16.4167C24.8173 16.4167 25.75 15.4839 25.75 14.3333H24.25ZM23.6667 11.0833C23.9888 11.0833 24.25 11.3445 24.25 11.6667H25.75C25.75 10.5161 24.8173 9.58333 23.6667 9.58333V11.0833ZM20.9309 9.71125C21.2472 10.4731 21.9889 11.0833 22.9083 11.0833V9.58333C22.6869 9.58333 22.4374 9.4279 22.3163 9.13607L20.9309 9.71125ZM21.3614 7.34913C20.7146 7.99587 20.612 8.94312 20.9309 9.71125L22.3163 9.13607C22.1976 8.85013 22.2617 8.57009 22.422 8.40979L21.3614 7.34913ZM21.8977 5.98783C22.1255 6.21563 22.1255 6.58498 21.8977 6.81278L22.9584 7.87344C23.772 7.05985 23.772 5.74076 22.9584 4.92717L21.8977 5.98783ZM19.1871 4.10221C19.4149 3.8744 19.7843 3.8744 20.0121 4.10221L21.0727 3.04155C20.2592 2.22796 18.9401 2.22796 18.1265 3.04155L19.1871 4.10221ZM16.2887 5.06905C17.0568 5.38795 18.004 5.28534 18.6507 4.63863L17.59 3.57797C17.4298 3.73824 17.1498 3.80241 16.8639 3.68371L16.2887 5.06905ZM14.9167 3.09172C14.9167 4.01112 15.5269 4.75277 16.2887 5.06905L16.8639 3.68371C16.5721 3.56256 16.4167 3.31311 16.4167 3.09172H14.9167ZM3.57797 17.59L3.04153 18.1265L4.10219 19.1872L4.63863 18.6507L3.57797 17.59ZM2.33333 16.4167H3.09172V14.9167H2.33333V16.4167ZM0.25 11.6667V14.3333H1.75V11.6667H0.25ZM3.09169 9.58333L2.33333 9.58333L2.33333 11.0833L3.09169 11.0833L3.09169 9.58333ZM3.04155 7.87345L3.57798 8.40988L4.63864 7.34922L4.10221 6.81279L3.04155 7.87345ZM4.92717 3.04155L3.04155 4.92717L4.10221 5.98783L5.98783 4.10221L4.92717 3.04155ZM8.40987 3.57798L7.87345 3.04155L6.81278 4.10221L7.34921 4.63864L8.40987 3.57798ZM9.58333 2.33333V3.09169H11.0833V2.33333H9.58333ZM9.71127 5.06906C10.4731 4.75277 11.0833 4.01111 11.0833 3.09169H9.58333C9.58333 3.3131 9.42791 3.56256 9.1361 3.68372L9.71127 5.06906ZM7.34921 4.63864C7.99593 5.28536 8.94316 5.38797 9.71127 5.06906L9.1361 3.68372C8.85017 3.80243 8.57015 3.73826 8.40987 3.57798L7.34921 4.63864ZM5.98783 4.10221C6.21563 3.87441 6.58498 3.87441 6.81279 4.10221L7.87345 3.04155C7.05985 2.22796 5.74076 2.22796 4.92717 3.04155L5.98783 4.10221ZM4.10221 6.81279C3.8744 6.58498 3.8744 6.21564 4.10221 5.98783L3.04155 4.92717C2.22796 5.74076 2.22796 7.05986 3.04155 7.87345L4.10221 6.81279ZM5.06906 9.71127C5.38797 8.94316 5.28536 7.99594 4.63864 7.34922L3.57798 8.40988C3.73826 8.57016 3.80243 8.85018 3.68372 9.1361L5.06906 9.71127ZM3.09169 11.0833C4.01111 11.0833 4.75277 10.4731 5.06906 9.71127L3.68372 9.1361C3.56256 9.42791 3.3131 9.58333 3.09169 9.58333V11.0833ZM1.75 11.6667C1.75 11.3445 2.01117 11.0833 2.33333 11.0833V9.58333C1.18274 9.58333 0.25 10.5161 0.25 11.6667H1.75ZM2.33333 14.9167C2.01117 14.9167 1.75 14.6555 1.75 14.3333H0.25C0.25 15.4839 1.18274 16.4167 2.33333 16.4167V14.9167ZM5.06905 16.2887C4.75277 15.5269 4.01112 14.9167 3.09172 14.9167V16.4167C3.31311 16.4167 3.56256 16.5721 3.68371 16.8639L5.06905 16.2887ZM4.63863 18.6507C5.28534 18.004 5.38795 17.0568 5.06905 16.2887L3.68371 16.8639C3.80241 17.1498 3.73824 17.4298 3.57797 17.59L4.63863 18.6507ZM4.10219 20.0121C3.87438 19.7843 3.87438 19.415 4.10219 19.1872L3.04153 18.1265C2.22793 18.9401 2.22793 20.2592 3.04153 21.0728L4.10219 20.0121ZM11.6667 0.25C10.5161 0.25 9.58333 1.18274 9.58333 2.33333H11.0833C11.0833 2.01117 11.3445 1.75 11.6667 1.75V0.25ZM17.5901 22.422L18.1264 22.9584L19.1871 21.8977L18.6507 21.3614L17.5901 22.422ZM16.4166 23.6667V22.9083H14.9166V23.6667H16.4166ZM11.6666 25.75H14.3333V24.25H11.6666V25.75ZM9.58326 22.9083V23.6667H11.0833V22.9083H9.58326ZM9.71117 20.9309C8.94305 20.612 7.9958 20.7146 7.34906 21.3614L8.40972 22.422C8.57002 22.2617 8.85006 22.1975 9.136 22.3163L9.71117 20.9309ZM11.0833 22.9083C11.0833 21.9889 10.473 21.2472 9.71117 20.9309L9.136 22.3163C9.42783 22.4374 9.58326 22.6869 9.58326 22.9083H11.0833ZM11.6666 24.25C11.3444 24.25 11.0833 23.9888 11.0833 23.6667H9.58326C9.58326 24.8173 10.516 25.75 11.6666 25.75V24.25ZM14.9166 23.6667C14.9166 23.9888 14.6554 24.25 14.3333 24.25V25.75C15.4839 25.75 16.4166 24.8173 16.4166 23.6667H14.9166ZM16.2887 20.9309C15.5268 21.2472 14.9166 21.9889 14.9166 22.9083H16.4166C16.4166 22.6869 16.572 22.4374 16.8638 22.3163L16.2887 20.9309ZM18.6507 21.3614C18.004 20.7146 17.0568 20.612 16.2887 20.9309L16.8638 22.3163C17.1498 22.1976 17.4298 22.2617 17.5901 22.422L18.6507 21.3614ZM20.012 21.8977C19.7842 22.1255 19.4149 22.1255 19.1871 21.8977L18.1264 22.9584C18.94 23.772 20.2591 23.772 21.0727 22.9584L20.012 21.8977ZM14.9167 13C14.9167 14.0585 14.0585 14.9167 13 14.9167V16.4167C14.887 16.4167 16.4167 14.887 16.4167 13H14.9167ZM13 14.9167C11.9415 14.9167 11.0833 14.0585 11.0833 13H9.58333C9.58333 14.887 11.113 16.4167 13 16.4167V14.9167ZM11.0833 13C11.0833 11.9415 11.9415 11.0833 13 11.0833V9.58333C11.113 9.58333 9.58333 11.113 9.58333 13H11.0833Z" fill="#242428"/>
</svg>
