<svg width="24" height="26" viewBox="0 0 24 26" fill="none" xmlns="http://www.w3.org/2000/svg">
<path d="M22.6667 25V25.75C23.0809 25.75 23.4167 25.4142 23.4167 25H22.6667ZM1.33333 25H0.583328C0.583328 25.4142 0.919115 25.75 1.33333 25.75L1.33333 25ZM6.66666 17.75C7.08087 17.75 7.41666 17.4142 7.41666 17C7.41666 16.5858 7.08087 16.25 6.66666 16.25V17.75ZM12 16.25C11.5858 16.25 11.25 16.5858 11.25 17C11.25 17.4142 11.5858 17.75 12 17.75V16.25ZM12 1.75C12.4142 1.75 12.75 1.41421 12.75 1C12.75 0.585786 12.4142 0.25 12 0.25V1.75ZM17.269 3.29112C17.0616 2.93258 16.6028 2.81005 16.2443 3.01746C15.8857 3.22487 15.7632 3.68367 15.9706 4.04221L17.269 3.29112ZM21.9167 22.3333V25H23.4167V22.3333H21.9167ZM2.08333 25V22.3333H0.583328V25H2.08333ZM17.3333 17.75C19.8646 17.75 21.9167 19.802 21.9167 22.3333H23.4167C23.4167 18.9736 20.6931 16.25 17.3333 16.25V17.75ZM6.66666 16.25C3.30693 16.25 0.583328 18.9736 0.583328 22.3333H2.08333C2.08333 19.802 4.13536 17.75 6.66666 17.75V16.25ZM12 17.75H17.3333V16.25H12V17.75ZM16.5833 6.33333C16.5833 8.86464 14.5313 10.9167 12 10.9167V12.4167C15.3597 12.4167 18.0833 9.69307 18.0833 6.33333H16.5833ZM12 10.9167C9.46869 10.9167 7.41666 8.86464 7.41666 6.33333H5.91666C5.91666 9.69307 8.64026 12.4167 12 12.4167V10.9167ZM7.41666 6.33333C7.41666 3.80203 9.46869 1.75 12 1.75V0.25C8.64026 0.25 5.91666 2.9736 5.91666 6.33333H7.41666ZM15.9706 4.04221C16.3601 4.71559 16.5833 5.49726 16.5833 6.33333H18.0833C18.0833 5.22654 17.7871 4.18666 17.269 3.29112L15.9706 4.04221ZM1.33333 25.75H22.6667V24.25H1.33333V25.75Z" fill="#242428"/>
</svg>
