<svg width="25" height="25" viewBox="0 0 25 25" fill="none" xmlns="http://www.w3.org/2000/svg">
<path d="M23.4167 15.6667C23.4167 15.2525 23.0809 14.9167 22.6667 14.9167C22.2524 14.9167 21.9167 15.2525 21.9167 15.6667H23.4167ZM22.6667 23.6667V24.4167C23.0809 24.4167 23.4167 24.0809 23.4167 23.6667H22.6667ZM12 22.9167C11.5858 22.9167 11.25 23.2525 11.25 23.6667C11.25 24.0809 11.5858 24.4167 12 24.4167V22.9167ZM1.33333 23.6667H0.583328C0.583328 23.8656 0.662346 24.0563 0.802998 24.197C0.94365 24.3376 1.13442 24.4167 1.33333 24.4167L1.33333 23.6667ZM1.33333 2.33333L1.33333 1.58333C1.13442 1.58333 0.943652 1.66235 0.803 1.803C0.662348 1.94365 0.58333 2.13442 0.58333 2.33333L1.33333 2.33333ZM9.33333 3.08333C9.74754 3.08333 10.0833 2.74755 10.0833 2.33333C10.0833 1.91912 9.74754 1.58333 9.33333 1.58333L9.33333 3.08333ZM5.33333 24.4167C5.74754 24.4167 6.08333 24.0809 6.08333 23.6667C6.08333 23.2525 5.74754 22.9167 5.33333 22.9167V24.4167ZM18.6667 1L19.197 0.46967C18.9041 0.176777 18.4292 0.176777 18.1363 0.46967L18.6667 1ZM24 6.33333L24.5303 6.86366C24.8232 6.57077 24.8232 6.0959 24.5303 5.803L24 6.33333ZM12 18.3333V19.0833C12.1989 19.0833 12.3897 19.0043 12.5303 18.8637L12 18.3333ZM6.66666 18.3333H5.91666C5.91666 18.7475 6.25245 19.0833 6.66666 19.0833V18.3333ZM6.66666 13L6.13633 12.4697C5.99568 12.6103 5.91666 12.8011 5.91666 13H6.66666ZM18.1363 11.1363C17.8434 11.4292 17.8434 11.9041 18.1363 12.197C18.4292 12.4899 18.9041 12.4899 19.197 12.197L18.1363 11.1363ZM15.8637 15.5303C16.1566 15.2374 16.1566 14.7626 15.8637 14.4697C15.5708 14.1768 15.0959 14.1768 14.803 14.4697L15.8637 15.5303ZM20.5303 9.803L15.197 4.46967L14.1363 5.53033L19.4697 10.8637L20.5303 9.803ZM21.9167 15.6667V23.6667H23.4167V15.6667H21.9167ZM22.6667 22.9167H12V24.4167H22.6667V22.9167ZM2.08333 23.6667L2.08333 2.33333L0.58333 2.33333L0.583328 23.6667H2.08333ZM1.33333 3.08333L9.33333 3.08333L9.33333 1.58333L1.33333 1.58333L1.33333 3.08333ZM5.33333 22.9167H1.33333V24.4167H5.33333V22.9167ZM18.1363 1.53033L23.4697 6.86366L24.5303 5.803L19.197 0.46967L18.1363 1.53033ZM12 17.5833H6.66666V19.0833H12V17.5833ZM7.41666 18.3333V13H5.91666V18.3333H7.41666ZM7.19699 13.5303L15.197 5.53033L14.1363 4.46967L6.13633 12.4697L7.19699 13.5303ZM15.197 5.53033L19.197 1.53033L18.1363 0.46967L14.1363 4.46967L15.197 5.53033ZM23.4697 5.803L19.4697 9.803L20.5303 10.8637L24.5303 6.86366L23.4697 5.803ZM19.4697 9.803L18.1363 11.1363L19.197 12.197L20.5303 10.8637L19.4697 9.803ZM14.803 14.4697L11.4697 17.803L12.5303 18.8637L15.8637 15.5303L14.803 14.4697Z" fill="#242428"/>
</svg>
