<svg width="26" height="21" viewBox="0 0 26 21" fill="none" xmlns="http://www.w3.org/2000/svg">
<path d="M1.39052 1.39052C1.63181 1.14924 1.96514 1 2.33333 1H23.6667C24.0349 1 24.3682 1.14924 24.6095 1.39052M1.39052 1.39052C1.14924 1.63181 1 1.96514 1 2.33333V18.3333C1 19.0697 1.59695 19.6667 2.33333 19.6667H15.6667M1.39052 1.39052L3.66667 3.66675M24.6095 1.39052C24.8508 1.63181 25 1.96514 25 2.33333V18.3333C25 19.0697 24.403 19.6667 23.6667 19.6667H21M24.6095 1.39052L14.8856 11.1143C13.8442 12.1557 12.1557 12.1557 11.1143 11.1143L7.66667 7.66667" stroke="#9FA0A3" stroke-width="1.5" stroke-linecap="round" stroke-linejoin="round"/>
</svg>
