<svg width="32" height="32" viewBox="0 0 32 32" fill="none" xmlns="http://www.w3.org/2000/svg">
<path d="M2.66669 16.0003L2.00113 15.6546C1.88854 15.8713 1.88854 16.1293 2.00113 16.3461L2.66669 16.0003ZM29.9989 16.3461C30.1899 15.9785 30.0467 15.5257 29.6791 15.3348C29.3115 15.1438 28.8587 15.287 28.6678 15.6546L29.9989 16.3461ZM24.6562 11.215C24.9588 11.4978 25.4334 11.4817 25.7162 11.1791C25.9991 10.8765 25.983 10.4019 25.6804 10.119L24.6562 11.215ZM12.75 16.0003C12.75 15.5861 12.4142 15.2503 12 15.2503C11.5858 15.2503 11.25 15.5861 11.25 16.0003H12.75ZM16 11.2503C15.5858 11.2503 15.25 11.5861 15.25 12.0003C15.25 12.4145 15.5858 12.7503 16 12.7503V11.2503ZM2.66669 16.0003C3.33224 16.3461 3.33214 16.3463 3.33205 16.3464C3.33205 16.3464 3.33198 16.3466 3.33198 16.3466C3.33196 16.3466 3.33202 16.3465 3.33215 16.3462C3.33242 16.3457 3.33297 16.3447 3.33382 16.3431C3.33551 16.3399 3.33837 16.3344 3.3424 16.3269C3.35044 16.3118 3.36313 16.2883 3.38043 16.2568C3.41503 16.1939 3.46803 16.0994 3.53912 15.9777C3.68136 15.7343 3.89569 15.383 4.17963 14.9599C4.74842 14.1122 5.59171 12.9833 6.6888 11.857C8.89466 9.59228 12.0461 7.41699 16 7.41699V5.91699C11.4691 5.91699 7.95387 8.40837 5.61427 10.8104C4.43864 12.0173 3.5395 13.2218 2.93405 14.1241C2.63087 14.5759 2.40012 14.9538 2.24406 15.2209C2.16601 15.3544 2.10655 15.4604 2.06599 15.5342C2.0457 15.5711 2.03013 15.5999 2.01931 15.6202C2.0139 15.6303 2.00968 15.6383 2.00665 15.6441C2.00513 15.6469 2.00392 15.6493 2.003 15.651C2.00254 15.6519 2.00215 15.6526 2.00184 15.6532C2.00169 15.6535 2.00151 15.6539 2.00143 15.654C2.00127 15.6543 2.00113 15.6546 2.66669 16.0003ZM29.3334 16.0003C28.6678 15.6546 28.6679 15.6544 28.668 15.6542C28.668 15.6542 28.6681 15.6541 28.6681 15.6541C28.6681 15.654 28.668 15.6542 28.6679 15.6544C28.6676 15.6549 28.6671 15.656 28.6662 15.6576C28.6645 15.6608 28.6617 15.6662 28.6576 15.6737C28.6496 15.6888 28.6369 15.7124 28.6196 15.7438C28.585 15.8067 28.532 15.9013 28.4609 16.0229C28.3187 16.2663 28.1044 16.6176 27.8204 17.0408C27.2516 17.8884 26.4083 19.0173 25.3112 20.1437C23.1054 22.4084 19.9539 24.5837 16 24.5837V26.0837C20.531 26.0837 24.0462 23.5923 26.3858 21.1903C27.5614 19.9833 28.4605 18.7789 29.066 17.8765C29.3692 17.4247 29.5999 17.0468 29.756 16.7798C29.834 16.6462 29.8935 16.5403 29.9341 16.4665C29.9543 16.4296 29.9699 16.4007 29.9807 16.3805C29.9861 16.3703 29.9904 16.3624 29.9934 16.3566C29.9949 16.3537 29.9961 16.3514 29.997 16.3496C29.9975 16.3488 29.9979 16.348 29.9982 16.3474C29.9984 16.3471 29.9985 16.3468 29.9986 16.3466C29.9988 16.3463 29.9989 16.3461 29.3334 16.0003ZM16 24.5837C12.0461 24.5837 8.89466 22.4084 6.6888 20.1437C5.59171 19.0173 4.74842 17.8884 4.17963 17.0408C3.89569 16.6176 3.68136 16.2663 3.53912 16.0229C3.46803 15.9013 3.41503 15.8067 3.38043 15.7438C3.36313 15.7124 3.35044 15.6888 3.3424 15.6737C3.33837 15.6662 3.33551 15.6608 3.33382 15.6576C3.33297 15.656 3.33242 15.6549 3.33215 15.6544C3.33202 15.6542 3.33196 15.654 3.33198 15.6541C3.33198 15.6541 3.33205 15.6542 3.33205 15.6542C3.33214 15.6544 3.33224 15.6546 2.66669 16.0003C2.00113 16.3461 2.00127 16.3463 2.00143 16.3466C2.00151 16.3468 2.00169 16.3471 2.00184 16.3474C2.00215 16.348 2.00254 16.3488 2.003 16.3496C2.00392 16.3514 2.00513 16.3537 2.00665 16.3566C2.00968 16.3624 2.0139 16.3703 2.01931 16.3805C2.03013 16.4007 2.0457 16.4296 2.06599 16.4665C2.10655 16.5403 2.16601 16.6462 2.24406 16.7798C2.40012 17.0468 2.63087 17.4247 2.93405 17.8765C3.5395 18.7789 4.43864 19.9833 5.61427 21.1903C7.95387 23.5923 11.4691 26.0837 16 26.0837V24.5837ZM16 7.41699C19.5756 7.41699 22.4946 9.19488 24.6562 11.215L25.6804 10.119C23.3666 7.95676 20.0987 5.91699 16 5.91699V7.41699ZM19.25 16.0003C19.25 17.7953 17.7949 19.2503 16 19.2503V20.7503C18.6234 20.7503 20.75 18.6237 20.75 16.0003H19.25ZM16 19.2503C14.2051 19.2503 12.75 17.7953 12.75 16.0003H11.25C11.25 18.6237 13.3767 20.7503 16 20.7503V19.2503ZM16 12.7503C17.7949 12.7503 19.25 14.2054 19.25 16.0003H20.75C20.75 13.377 18.6234 11.2503 16 11.2503V12.7503Z" fill="#242AF0"/>
</svg>
