<svg width="24" height="25" viewBox="0 0 24 25" fill="none" xmlns="http://www.w3.org/2000/svg">
<path fill-rule="evenodd" clip-rule="evenodd" d="M24 12.5233C24 11.655 23.9221 10.8201 23.7773 10.0186H12.2449V14.7552H18.8349C18.551 16.2858 17.6883 17.5826 16.3914 18.4509V21.5233H20.3488C22.6642 19.3915 24 16.2524 24 12.5233Z" fill="#4285F4"/>
<path fill-rule="evenodd" clip-rule="evenodd" d="M12.2449 24.4898C15.551 24.4898 18.3228 23.3933 20.3488 21.5232L16.3914 18.4508C15.2949 19.1855 13.8923 19.6197 12.2449 19.6197C9.05562 19.6197 6.35617 17.4657 5.39328 14.5714H1.30237V17.744C3.31721 21.7458 7.45821 24.4898 12.2449 24.4898Z" fill="#34A853"/>
<path fill-rule="evenodd" clip-rule="evenodd" d="M5.39332 14.5714C5.14842 13.8367 5.00928 13.052 5.00928 12.2449C5.00928 11.4379 5.14842 10.6531 5.39332 9.91838V6.74583H1.30241C0.473098 8.3989 0 10.269 0 12.2449C0 14.2208 0.473098 16.0909 1.30241 17.744L5.39332 14.5714Z" fill="#FBBC05"/>
<path fill-rule="evenodd" clip-rule="evenodd" d="M12.2449 4.87013C14.0426 4.87013 15.6567 5.48794 16.9257 6.7013L20.4378 3.18924C18.3172 1.21336 15.5454 0 12.2449 0C7.45821 0 3.31721 2.74397 1.30237 6.74583L5.39328 9.91837C6.35617 7.02412 9.05561 4.87013 12.2449 4.87013Z" fill="#EA4335"/>
</svg>
