<svg width="32" height="32" viewBox="0 0 32 32" fill="none" xmlns="http://www.w3.org/2000/svg">
<path d="M12 22.6667H20M4 19.4667V16.1735C4 14.6419 4 13.8761 4.19741 13.1709C4.37227 12.5461 4.65964 11.9586 5.04541 11.437C5.4809 10.8482 6.08539 10.378 7.29437 9.43772L10.761 6.74142C12.6348 5.28407 13.5716 4.5554 14.6062 4.2753C15.519 4.02815 16.4811 4.02815 17.3939 4.2753C18.4284 4.5554 19.3652 5.28408 21.239 6.74142L24.7056 9.43772C25.9146 10.378 26.5191 10.8482 26.9546 11.437C27.3404 11.9586 27.6277 12.5461 27.8026 13.1709C28 13.8761 28 14.6419 28 16.1735V19.4667C28 22.4536 28 23.9471 27.4187 25.088C26.9074 26.0915 26.0915 26.9074 25.0879 27.4187C23.9471 28 22.4536 28 19.4667 28H12.5333C9.54639 28 8.05291 28 6.91205 27.4187C5.90852 26.9074 5.09262 26.0915 4.5813 25.088C4 23.9471 4 22.4536 4 19.4667Z" stroke="#9FA0A3" stroke-width="2" stroke-linecap="round" stroke-linejoin="round"/>
</svg>
