<svg width="32" height="32" viewBox="0 0 32 32" fill="none" xmlns="http://www.w3.org/2000/svg">
<path d="M19.25 21.3333C19.25 21.7475 19.5858 22.0833 20 22.0833C20.4142 22.0833 20.75 21.7475 20.75 21.3333H19.25ZM18.8284 18.5049L19.3587 17.9746L19.3587 17.9746L18.8284 18.5049ZM12 26.6667V27.4167C12.4142 27.4167 12.75 27.0809 12.75 26.6667H12ZM5.33332 26.6667H4.58332C4.58332 27.0809 4.91911 27.4167 5.33332 27.4167V26.6667ZM5.33331 13.3333L4.83943 12.7689C4.67667 12.9113 4.58331 13.1171 4.58331 13.3333H5.33331ZM11.1605 9.2311C11.4723 8.95834 11.5038 8.48452 11.2311 8.17279C10.9583 7.86106 10.4845 7.82947 10.1728 8.10223L11.1605 9.2311ZM26.6666 13.3333L27.4166 13.3333C27.4166 13.1171 27.3233 12.9113 27.1605 12.7689L26.6666 13.3333ZM16.4939 3.43557C16.1821 3.16281 15.7083 3.19439 15.4355 3.50612C15.1628 3.81785 15.1944 4.29167 15.5061 4.56443L16.4939 3.43557ZM26.6666 26.6667V27.4167C26.8656 27.4167 27.0563 27.3376 27.197 27.197C27.3376 27.0563 27.4166 26.8656 27.4166 26.6667L26.6666 26.6667ZM20 25.9167C19.5858 25.9167 19.25 26.2525 19.25 26.6667C19.25 27.0809 19.5858 27.4167 20 27.4167V25.9167ZM20.75 21.3333C20.75 20.0736 20.2495 18.8654 19.3587 17.9746L18.2981 19.0352C18.9076 19.6447 19.25 20.4714 19.25 21.3333H20.75ZM19.3587 17.9746C18.4679 17.0838 17.2598 16.5833 16 16.5833V18.0833C16.8619 18.0833 17.6886 18.4257 18.2981 19.0352L19.3587 17.9746ZM16 16.5833C14.7402 16.5833 13.532 17.0838 12.6412 17.9746L13.7019 19.0352C14.3114 18.4257 15.138 18.0833 16 18.0833V16.5833ZM12.6412 17.9746C11.7504 18.8654 11.25 20.0736 11.25 21.3333H12.75C12.75 20.4714 13.0924 19.6447 13.7019 19.0352L12.6412 17.9746ZM11.25 21.3333V26.6667H12.75V21.3333H11.25ZM12 25.9167H5.33332V27.4167H12V25.9167ZM6.08332 26.6667L6.08331 13.3333L4.58331 13.3333L4.58332 26.6667L6.08332 26.6667ZM10.1728 8.10223L4.83943 12.7689L5.82719 13.8978L11.1605 9.2311L10.1728 8.10223ZM27.1605 12.7689L16.4939 3.43557L15.5061 4.56443L26.1728 13.8978L27.1605 12.7689ZM25.9166 13.3333L25.9166 26.6667L27.4166 26.6667L27.4166 13.3333L25.9166 13.3333ZM26.6666 25.9167H20V27.4167H26.6666V25.9167Z" fill="#9FA0A3"/>
</svg>
