<svg width="22" height="26" viewBox="0 0 22 26" fill="none" xmlns="http://www.w3.org/2000/svg">
<path d="M20.3333 25V25.75C20.7476 25.75 21.0833 25.4142 21.0833 25H20.3333ZM20.3333 11.6667H21.0833C21.0833 11.2525 20.7476 10.9167 20.3333 10.9167V11.6667ZM1.66667 11.6667V10.9167C1.25246 10.9167 0.916672 11.2525 0.916672 11.6667H1.66667ZM1.66667 25H0.916672C0.916672 25.4142 1.25246 25.75 1.66667 25.75L1.66667 25ZM11 25.75C11.4142 25.75 11.75 25.4142 11.75 25C11.75 24.5858 11.4142 24.25 11 24.25V25.75ZM17.6667 24.25C17.2525 24.25 16.9167 24.5858 16.9167 25C16.9167 25.4142 17.2525 25.75 17.6667 25.75V24.25ZM6.41667 11.6667V6.33333H4.91667V11.6667H6.41667ZM6.41667 6.33333C6.41667 5.56446 6.6535 4.39446 7.34199 3.43823C8.00294 2.52024 9.11111 1.75 11 1.75V0.25C8.62223 0.25 7.06374 1.25754 6.12469 2.56177C5.21317 3.82776 4.91667 5.32443 4.91667 6.33333H6.41667ZM11 1.75C12.8889 1.75 13.9971 2.52024 14.658 3.43823C15.3465 4.39446 15.5833 5.56446 15.5833 6.33333H17.0833C17.0833 5.32443 16.7868 3.82776 15.8753 2.56177C14.9363 1.25754 13.3778 0.25 11 0.25V1.75ZM15.5833 6.33333V11.6667H17.0833V6.33333H15.5833ZM21.0833 25V11.6667H19.5833V25H21.0833ZM0.916672 11.6667V25H2.41667V11.6667H0.916672ZM5.66667 10.9167H1.66667V12.4167H5.66667V10.9167ZM20.3333 10.9167H16.3333V12.4167H20.3333V10.9167ZM16.3333 10.9167H5.66667V12.4167H16.3333V10.9167ZM1.66667 25.75H11V24.25H1.66667V25.75ZM17.6667 25.75H20.3333V24.25H17.6667V25.75Z" fill="#242428"/>
</svg>
