<svg width="32" height="32" viewBox="0 0 32 32" fill="none" xmlns="http://www.w3.org/2000/svg">
<path d="M24 26.6663V27.4163V26.6663ZM20 25.9163C19.5858 25.9163 19.25 26.2521 19.25 26.6663C19.25 27.0806 19.5858 27.4163 20 27.4163V25.9163ZM26.6667 23.9997H25.9167H26.6667ZM20 4.58301C19.5858 4.58301 19.25 4.91879 19.25 5.33301C19.25 5.74722 19.5858 6.08301 20 6.08301V4.58301ZM24 5.33301V6.08301V5.33301ZM26.6667 7.99967H27.4167H26.6667ZM9.86366 11.1967C10.1566 10.9038 10.1566 10.4289 9.86366 10.136C9.57077 9.84312 9.0959 9.84312 8.803 10.136L9.86366 11.1967ZM4 15.9997L3.46967 15.4693C3.25517 15.6838 3.191 16.0064 3.30709 16.2867C3.42318 16.5669 3.69665 16.7497 4 16.7497L4 15.9997ZM8.80301 21.8633C9.0959 22.1562 9.57077 22.1562 9.86367 21.8633C10.1566 21.5704 10.1566 21.0956 9.86366 20.8027L8.80301 21.8633ZM8.53033 19.4693C8.23744 19.1765 7.76256 19.1765 7.46967 19.4693C7.17678 19.7622 7.17678 20.2371 7.46967 20.53L8.53033 19.4693ZM20 16.7497C20.4142 16.7497 20.75 16.4139 20.75 15.9997C20.75 15.5855 20.4142 15.2497 20 15.2497V16.7497ZM24 25.9163H20V27.4163H24V25.9163ZM25.9167 23.9997C25.9167 25.0582 25.0585 25.9163 24 25.9163V27.4163C25.887 27.4163 27.4167 25.8866 27.4167 23.9997H25.9167ZM20 6.08301H24V4.58301H20V6.08301ZM24 6.08301C25.0585 6.08301 25.9167 6.94113 25.9167 7.99967H27.4167C27.4167 6.1127 25.887 4.58301 24 4.58301V6.08301ZM25.9167 7.99967V18.6663H27.4167V7.99967H25.9167ZM8.803 10.136L3.46967 15.4693L4.53033 16.53L9.86366 11.1967L8.803 10.136ZM9.86366 20.8027L8.53033 19.4693L7.46967 20.53L8.80301 21.8633L9.86366 20.8027ZM4 16.7497L20 16.7497V15.2497L4 15.2497L4 16.7497ZM25.9167 18.6663V23.9997H27.4167V18.6663H25.9167Z" fill="#9FA0A3"/>
</svg>
