<svg width="60" height="58" viewBox="0 0 60 58" fill="none" xmlns="http://www.w3.org/2000/svg">
<g clip-path="url(#clip0_680_7632)">
<path d="M3.87629 22.5572C2.93417 21.4805 2.47656 20.027 2.47656 18.1696V1.56128H8.80227V17.712C8.80227 18.2773 8.93686 18.6811 9.20604 18.9233C9.47522 19.1656 9.95974 19.3002 10.6327 19.3002C11.1441 19.3002 11.6286 19.1925 12.1132 18.9502L12.3285 23.1494C10.9826 23.8224 9.50214 24.1723 7.83323 24.1723C6.1374 24.1723 4.81842 23.634 3.87629 22.5572Z" fill="#242AF0"/>
<path d="M16.3124 23.1226C15.1818 22.4228 14.2666 21.4806 13.5937 20.2963C12.9207 19.1119 12.5708 17.7929 12.5708 16.3124C12.5708 14.8858 12.9207 13.5668 13.5937 12.4093C14.2666 11.2518 15.1818 10.3366 16.3124 9.66369C17.4429 8.99074 18.6542 8.66772 19.9463 8.66772C20.9961 8.66772 21.9382 8.96382 22.8534 9.5291C23.7417 10.1213 24.4147 10.9827 24.8723 12.1401V8.69464H31.1711V23.9302H24.8723V21.1307C23.8763 23.1496 22.2343 24.1724 19.9463 24.1724C18.6542 24.1724 17.4429 23.8225 16.3124 23.1226ZM23.9571 18.5735C24.5223 18.0082 24.8184 17.3353 24.8723 16.5547V16.3124C24.8454 15.5049 24.5223 14.8319 23.9302 14.2666C23.338 13.7014 22.665 13.4322 21.9113 13.4322C21.0769 13.4322 20.3501 13.7283 19.7579 14.3205C19.1657 14.9127 18.8696 15.6125 18.8696 16.447C18.8696 17.2815 19.1657 18.0082 19.7579 18.5735C20.3501 19.1657 21.0769 19.4349 21.8844 19.4349C22.7189 19.4349 23.3918 19.1388 23.9571 18.5735Z" fill="#242AF0"/>
<path d="M40.1615 26.218C41.3997 26.218 42.3419 25.8412 42.9879 25.1144C43.6339 24.3876 44.0108 23.1494 44.1185 21.4266C42.9341 23.0955 41.1306 23.9031 38.708 23.9031C37.389 23.9031 36.1777 23.5531 35.074 22.8802C33.9704 22.2072 33.0821 21.292 32.4361 20.1077C31.7901 18.9502 31.467 17.685 31.467 16.2853C31.467 14.8856 31.7901 13.5935 32.4361 12.436C33.0821 11.2786 33.9435 10.3365 35.0471 9.66351C36.1508 8.99056 37.3621 8.64062 38.681 8.64062C39.8923 8.64062 40.9691 8.96364 41.8843 9.58275C42.7995 10.2019 43.3917 11.0632 43.6608 12.113V8.69446H49.9866V20.1346C49.9866 27.5908 39.4886 26.218 40.1615 26.218ZM42.7456 18.5733C43.3378 18.0081 43.6339 17.3351 43.6878 16.5545V16.3122C43.6609 15.5585 43.3378 14.8856 42.7456 14.2934C42.1534 13.7012 41.4805 13.432 40.6999 13.432C39.8923 13.432 39.1925 13.7281 38.6003 14.3203C38.0081 14.9125 37.7389 15.6124 37.7389 16.4468C37.7389 17.2544 38.035 17.9811 38.6003 18.5733C39.1925 19.1655 39.8923 19.4616 40.6999 19.4616C41.4536 19.4347 42.1534 19.1386 42.7456 18.5733Z" fill="#242AF0"/>
<path d="M52.14 22.342C51.1978 21.2652 50.7402 19.7848 50.7402 17.9274V8.69458H57.0929V17.6582C57.0929 18.1158 57.2274 18.4658 57.4697 18.735C57.712 18.9772 58.035 19.1118 58.4388 19.1118C58.8425 19.1118 59.5693 19.0041 60 18.7619V22.9341C59.5693 23.2841 58.9771 23.5263 58.2772 23.7148C57.5774 23.9032 56.8237 23.9839 56.07 23.9839C54.3742 23.957 53.0821 23.4187 52.14 22.342Z" fill="#242AF0"/>
<path d="M0.592194 39.8386V36.2586C2.01884 36.77 3.87618 37.0392 5.24899 37.0392C6.24495 37.0392 6.75639 36.77 6.75639 36.2047C6.75639 35.9355 6.6218 35.6933 6.32571 35.5049C6.02961 35.3164 5.49125 35.1549 4.68371 35.0203C3.0148 34.6973 1.83042 34.159 1.10363 33.4053C0.376851 32.6516 0 31.5748 0 30.1751C0.0807537 28.587 0.699865 27.3757 1.88425 26.5412C3.06864 25.7337 4.68371 25.303 6.72948 25.303C7.77927 25.303 8.66756 25.3568 9.42127 25.4914C10.175 25.626 10.8479 25.8413 11.467 26.1374L10.8479 29.7175C10.2557 29.5022 9.63661 29.3407 8.93674 29.2061C8.23688 29.0984 7.6716 29.0176 7.214 29.0176C6.54105 29.0176 6.05653 29.0984 5.81427 29.233C5.54509 29.3676 5.43742 29.556 5.43742 29.7983C5.43742 30.229 5.94886 30.552 6.94482 30.7404C8.77524 31.0634 10.1211 31.6287 11.0363 32.4093C11.9246 33.2168 12.3822 34.2936 12.3822 35.6664C12.3822 37.2545 11.817 38.4927 10.7133 39.408C9.60969 40.3232 8.02153 40.7808 5.92194 40.7808C3.76851 40.7808 2.18035 40.4578 0.592194 39.8386Z" fill="#242AF0"/>
<path d="M16.3121 39.7579C15.1816 39.058 14.2664 38.1159 13.5934 36.9315C12.9205 35.7471 12.5706 34.4281 12.5706 32.9477C12.5706 31.521 12.9205 30.202 13.5934 29.0446C14.2664 27.8871 15.1816 26.9719 16.3121 26.2989C17.4427 25.626 18.654 25.303 19.9461 25.303C20.9959 25.303 21.938 25.5991 22.8532 26.1644C23.7415 26.7565 24.4144 27.6179 24.872 28.7754V25.303H31.1708V40.5385H24.872V37.739C23.8761 39.7579 22.2341 40.7808 19.9461 40.7808C18.654 40.7808 17.4427 40.4308 16.3121 39.7579ZM23.9568 35.1818C24.5221 34.6166 24.8182 33.9436 24.872 33.163V32.9207C24.8451 32.1132 24.5221 31.4403 23.9299 30.875C23.3377 30.3097 22.6648 30.0405 21.9111 30.0405C21.0766 30.0405 20.3498 30.3366 19.7576 30.9288C19.1654 31.521 18.8693 32.2209 18.8693 33.0553C18.8693 33.8898 19.1654 34.6166 19.7576 35.1818C20.3498 35.774 21.0766 36.0432 21.8842 36.0432C22.7186 36.0432 23.3916 35.7471 23.9568 35.1818Z" fill="#242AF0"/>
<path d="M32.3015 25.303C35.3702 27.4564 37.9543 27.5372 37.9543 27.5372V29.5291C39.031 27.3487 40.7537 26.272 43.1225 26.272C44.926 26.272 46.3257 26.9181 47.3486 28.1832C48.3715 29.4753 48.8829 31.2518 48.8829 33.5129V40.5385H42.9879V32.9207C42.9879 32.1132 42.8264 31.4941 42.4765 31.0634C42.1265 30.6327 41.642 30.4174 41.0229 30.4174C40.5653 30.4174 40.1346 30.552 39.7039 30.8481C39.2733 31.1442 38.9233 31.5479 38.6541 32.0863C38.385 32.6246 38.2504 33.2438 38.2504 33.9436V40.5116H32.3284C32.3015 40.5385 32.3015 28.56 32.3015 25.303Z" fill="#242AF0"/>
<path d="M3.98394 55.8546C3.0149 54.8317 2.50346 53.4589 2.50346 51.6823V45.8411H0.592285V42.1265H2.96106H8.77533H12.2477V45.8411H8.80224V50.9286C8.80224 51.4401 8.96375 51.8169 9.28677 52.0861C9.60978 52.3553 10.0674 52.5168 10.6327 52.5168C11.171 52.5168 11.6555 52.4091 12.1131 52.1668L12.3554 56.366C11.844 56.6621 11.1979 56.9044 10.4173 57.0928C9.6367 57.2812 8.85608 57.3889 8.1293 57.3889C6.35272 57.362 4.9799 56.8506 3.98394 55.8546Z" fill="#242AF0"/>
<path d="M16.3121 56.3392C15.1816 55.6393 14.2664 54.6972 13.5934 53.5128C12.9205 52.3284 12.5706 51.0094 12.5706 49.529C12.5706 48.1023 12.9205 46.7833 13.5934 45.6259C14.2664 44.4684 15.1816 43.5532 16.3121 42.8802C17.4427 42.2073 18.654 41.8843 19.9461 41.8843C20.9959 41.8843 21.938 42.1804 22.8532 42.7456C23.7415 43.3378 24.4144 44.1992 24.872 45.3567V41.8843H31.1708V57.1198H24.872V54.3203C23.8761 56.3392 22.2341 57.3621 19.9461 57.3621C18.654 57.3621 17.4427 57.0121 16.3121 56.3392ZM23.9568 51.7631C24.5221 51.1979 24.8182 50.5249 24.872 49.7443V49.502C24.8451 48.6945 24.5221 48.0216 23.9299 47.4563C23.3377 46.891 22.6648 46.6218 21.9111 46.6218C21.0766 46.6218 20.3498 46.9179 19.7576 47.5101C19.1654 48.1023 18.8693 48.8022 18.8693 49.6366C18.8693 50.4711 19.1654 51.1979 19.7576 51.7631C20.3498 52.3553 21.0766 52.6245 21.8842 52.6245C22.7186 52.6245 23.3916 52.3284 23.9568 51.7631Z" fill="#242AF0"/>
<path d="M33.7012 55.5317C32.7591 54.4549 32.3015 52.9744 32.3015 51.1171V41.8843H38.6541V50.8479C38.6541 51.3055 38.7887 51.6555 39.031 51.9247C39.2733 52.1669 39.5963 52.3015 40 52.3015C40.4038 52.3015 41.1306 52.1938 41.5613 51.9516V56.1238C41.1306 56.4738 40.5384 56.716 39.8385 56.9045C39.1387 57.0929 38.385 57.1736 37.6313 57.1736C35.9623 57.1467 34.6434 56.6084 33.7012 55.5317Z" fill="#242AF0"/>
<path d="M40.2962 26.2181C40.653 26.2181 40.9422 25.9288 40.9422 25.5721C40.9422 25.2153 40.653 24.926 40.2962 24.926C39.9394 24.926 39.6501 25.2153 39.6501 25.5721C39.6501 25.9288 39.9394 26.2181 40.2962 26.2181Z" fill="#242AF0"/>
<path d="M43.7686 6.9178C44.1454 6.83705 44.8722 6.72938 45.6797 6.56787C44.8453 6.72938 44.1454 6.83705 43.7686 6.9178Z" fill="#FF6C39"/>
<path d="M56.2854 0.969044C55.6393 0.349933 54.778 0 53.8358 0C52.8937 0 52.0323 0.403769 51.4132 1.0498C51.2786 1.18439 51.171 1.3459 51.0364 1.5074C51.2786 1.42665 51.5478 1.37281 51.8439 1.37281C52.5976 1.37281 53.2975 1.66891 53.8089 2.15343C54.3204 2.63795 54.6434 3.33782 54.6434 4.09152C54.6434 4.84522 54.3473 5.54509 53.8628 6.05653C53.4052 6.54105 52.7322 6.89098 52.1669 6.89098H53.5667C53.5667 6.89098 54.2127 6.89098 54.2396 6.89098C54.9395 6.89098 55.7739 6.43338 56.3392 5.84119C56.9583 5.22207 57.3352 4.33378 57.3082 3.39166C57.3082 2.44953 56.9045 1.58816 56.2854 0.969044Z" fill="#FF6C39"/>
<path d="M51.6555 6.89087C51.6555 6.89087 51.7901 6.89087 51.9247 6.89087L43.7686 6.91924L51.6555 6.89087Z" fill="#242AF0"/>
<path d="M50.8209 5.06049C50.8747 4.73747 50.5786 4.57596 50.4979 3.90302C50.471 3.76843 50.471 3.63384 50.471 3.49925C50.471 2.74555 50.6863 2.0726 51.0901 1.50732C50.6594 1.64191 50.2556 1.88417 49.9595 2.20719C49.475 2.71863 49.1789 3.4185 49.1789 4.1722C49.1789 4.27987 49.1789 4.38754 49.2058 4.49521C49.2866 5.06049 49.5019 5.16816 49.475 5.43734C49.4212 5.86802 47.4023 6.29871 45.7334 6.59481C47.8061 6.19104 50.7132 5.62576 50.8209 5.06049Z" fill="#242AF0"/>
<path d="M54.6433 4.09151C54.6433 3.33781 54.3203 2.63794 53.8088 2.15342C53.2974 1.6689 52.5975 1.3728 51.8438 1.3728C51.5746 1.3728 51.3055 1.42664 51.0363 1.50739C50.6325 2.07267 50.4172 2.77253 50.4172 3.49932C50.4172 3.63391 50.4172 3.7685 50.4441 3.90309C50.5517 4.60295 50.8209 4.76446 50.7671 5.06055C50.6863 5.65275 47.7792 6.21802 45.6258 6.59488C44.8182 6.72947 44.0915 6.86405 43.7146 6.94481L51.8707 6.91789H51.8976H52.0322C52.0592 6.91789 52.0861 6.91789 52.113 6.91789H52.1668C52.7321 6.91789 53.3781 6.56796 53.8627 6.08344C54.3741 5.54508 54.6702 4.84521 54.6433 4.09151Z" fill="#FF236A"/>
</g>
<defs>
<clipPath id="clip0_680_7632">
<rect width="60" height="57.362" fill="white"/>
</clipPath>
</defs>
</svg>
