<svg width="32" height="32" viewBox="0 0 32 32" fill="none" xmlns="http://www.w3.org/2000/svg">
<path d="M20.6667 14.5843C20.2525 14.5843 19.9167 14.9201 19.9167 15.3343C19.9167 15.7485 20.2525 16.0843 20.6667 16.0843V14.5843ZM20.68 16.0843C21.0942 16.0843 21.43 15.7485 21.43 15.3343C21.43 14.9201 21.0942 14.5843 20.68 14.5843V16.0843ZM15.3333 14.5843C14.9191 14.5843 14.5833 14.9201 14.5833 15.3343C14.5833 15.7485 14.9191 16.0843 15.3333 16.0843V14.5843ZM15.3467 16.0843C15.7609 16.0843 16.0967 15.7485 16.0967 15.3343C16.0967 14.9201 15.7609 14.5843 15.3467 14.5843V16.0843ZM10 14.5843C9.58579 14.5843 9.25 14.9201 9.25 15.3343C9.25 15.7485 9.58579 16.0843 10 16.0843V14.5843ZM10.0133 16.0843C10.4275 16.0843 10.7633 15.7485 10.7633 15.3343C10.7633 14.9201 10.4275 14.5843 10.0133 14.5843V16.0843ZM28.0001 28.001L27.7629 28.7126C28.0324 28.8024 28.3295 28.7322 28.5304 28.5314C28.7313 28.3305 28.8014 28.0334 28.7116 27.7639L28.0001 28.001ZM25.4667 20.401L24.8501 19.9742C24.7157 20.1683 24.6806 20.4143 24.7552 20.6382L25.4667 20.401ZM24.2372 25.9562C23.8442 25.8252 23.4195 26.0376 23.2885 26.4305C23.1575 26.8235 23.3699 27.2482 23.7628 27.3792L24.2372 25.9562ZM15.3333 4.75098C15.7475 4.75098 16.0833 4.41519 16.0833 4.00098C16.0833 3.58676 15.7475 3.25098 15.3333 3.25098V4.75098ZM20.8464 26.0704C21.1792 25.8239 21.2493 25.3543 21.0028 25.0214C20.7563 24.6885 20.2866 24.6185 19.9537 24.865L20.8464 26.0704ZM23.1522 6.12142C22.8365 5.85325 22.3632 5.89177 22.0951 6.20746C21.8269 6.52314 21.8654 6.99645 22.1811 7.26462L23.1522 6.12142ZM20.6667 16.0843H20.68V14.5843H20.6667V16.0843ZM15.3333 16.0843H15.3467V14.5843H15.3333V16.0843ZM10 16.0843H10.0133V14.5843H10V16.0843ZM28.7116 27.7639L26.1782 20.1639L24.7552 20.6382L27.2886 28.2382L28.7116 27.7639ZM23.7628 27.3792L27.7629 28.7126L28.2372 27.2895L24.2372 25.9562L23.7628 27.3792ZM15.3333 25.9176C9.48832 25.9176 4.75 21.1793 4.75 15.3343H3.25C3.25 22.0077 8.65989 27.4176 15.3333 27.4176V25.9176ZM4.75 15.3343C4.75 9.4893 9.48832 4.75098 15.3333 4.75098V3.25098C8.65989 3.25098 3.25 8.66087 3.25 15.3343H4.75ZM20.4 25.4677C19.9537 24.865 19.954 24.8648 19.9543 24.8645C19.9544 24.8645 19.9547 24.8643 19.9548 24.8641C19.9552 24.8639 19.9555 24.8636 19.9558 24.8634C19.9564 24.863 19.9569 24.8626 19.9573 24.8623C19.9582 24.8617 19.9586 24.8614 19.9587 24.8613C19.9588 24.8612 19.9574 24.8623 19.9544 24.8643C19.9485 24.8684 19.9364 24.8766 19.9181 24.8884C19.8815 24.9119 19.82 24.9497 19.7332 24.9971C19.5597 25.092 19.285 25.2256 18.9057 25.3618C18.1485 25.6335 16.9675 25.9176 15.3333 25.9176V27.4176C17.1455 27.4176 18.4977 27.1018 19.4124 26.7736C19.869 26.6097 20.2147 26.4434 20.4528 26.3133C20.5718 26.2482 20.6638 26.1922 20.7292 26.1502C20.762 26.1291 20.7881 26.1116 20.8076 26.0981C20.8173 26.0913 20.8254 26.0856 20.8319 26.081C20.8351 26.0787 20.8379 26.0766 20.8403 26.0749C20.8416 26.074 20.8427 26.0732 20.8437 26.0724C20.8442 26.0721 20.8446 26.0717 20.8451 26.0714C20.8453 26.0712 20.8456 26.071 20.8457 26.0709C20.8461 26.0707 20.8464 26.0704 20.4 25.4677ZM25.9167 15.3343C25.9167 16.9093 25.6335 18.0917 25.3595 18.8681C25.2223 19.2568 25.087 19.5448 24.99 19.7299C24.9414 19.8225 24.9025 19.8893 24.8776 19.9301C24.8652 19.9505 24.8563 19.9644 24.8515 19.9718C24.8491 19.9755 24.8478 19.9775 24.8475 19.9779C24.8474 19.9781 24.8475 19.9779 24.8479 19.9773C24.8481 19.977 24.8484 19.9765 24.8488 19.976C24.849 19.9758 24.8492 19.9755 24.8494 19.9752C24.8495 19.975 24.8497 19.9748 24.8497 19.9747C24.8499 19.9744 24.8501 19.9742 25.4667 20.401C26.0834 20.8279 26.0836 20.8276 26.0838 20.8274C26.0839 20.8273 26.0841 20.827 26.0842 20.8268C26.0845 20.8263 26.0848 20.8259 26.0851 20.8254C26.0858 20.8245 26.0865 20.8234 26.0873 20.8223C26.0888 20.82 26.0907 20.8172 26.0928 20.814C26.0971 20.8077 26.1025 20.7996 26.1089 20.7897C26.1217 20.7701 26.1386 20.7435 26.159 20.71C26.1997 20.643 26.2545 20.5484 26.3185 20.4263C26.4464 20.1823 26.6112 19.8286 26.7739 19.3673C27.0999 18.4436 27.4167 17.0927 27.4167 15.3343H25.9167ZM22.1811 7.26462C24.4677 9.20706 25.9167 12.1011 25.9167 15.3343H27.4167C27.4167 11.6424 25.76 8.33668 23.1522 6.12142L22.1811 7.26462Z" fill="#242AF0"/>
</svg>
