<svg width="24" height="6" viewBox="0 0 24 6" fill="none" xmlns="http://www.w3.org/2000/svg">
<path d="M21.3334 4.33366C22.0698 4.33366 22.6667 3.73671 22.6667 3.00033C22.6667 2.26395 22.0698 1.66699 21.3334 1.66699C20.597 1.66699 20 2.26395 20 3.00033C20 3.73671 20.597 4.33366 21.3334 4.33366Z" fill="#9FA0A3"/>
<path d="M12 4.33366C12.7364 4.33366 13.3334 3.73671 13.3334 3.00033C13.3334 2.26395 12.7364 1.66699 12 1.66699C11.2637 1.66699 10.6667 2.26395 10.6667 3.00033C10.6667 3.73671 11.2637 4.33366 12 4.33366Z" fill="#9FA0A3"/>
<path d="M2.66671 4.33366C3.40309 4.33366 4.00004 3.73671 4.00004 3.00033C4.00004 2.26395 3.40309 1.66699 2.66671 1.66699C1.93033 1.66699 1.33337 2.26395 1.33337 3.00033C1.33337 3.73671 1.93033 4.33366 2.66671 4.33366Z" fill="#9FA0A3"/>
<path d="M21.6667 3.00033C21.6667 3.18442 21.5175 3.33366 21.3334 3.33366V5.33366C22.622 5.33366 23.6667 4.28899 23.6667 3.00033H21.6667ZM21.3334 3.33366C21.1493 3.33366 21 3.18442 21 3.00033H19C19 4.28899 20.0447 5.33366 21.3334 5.33366V3.33366ZM21 3.00033C21 2.81623 21.1493 2.66699 21.3334 2.66699V0.666992C20.0447 0.666992 19 1.71166 19 3.00033H21ZM21.3334 2.66699C21.5175 2.66699 21.6667 2.81623 21.6667 3.00033H23.6667C23.6667 1.71166 22.622 0.666992 21.3334 0.666992V2.66699ZM12.3334 3.00033C12.3334 3.18442 12.1841 3.33366 12 3.33366V5.33366C13.2887 5.33366 14.3334 4.28899 14.3334 3.00033H12.3334ZM12 3.33366C11.8159 3.33366 11.6667 3.18442 11.6667 3.00033H9.66671C9.66671 4.28899 10.7114 5.33366 12 5.33366V3.33366ZM11.6667 3.00033C11.6667 2.81623 11.8159 2.66699 12 2.66699V0.666992C10.7114 0.666992 9.66671 1.71166 9.66671 3.00033H11.6667ZM12 2.66699C12.1841 2.66699 12.3334 2.81623 12.3334 3.00033H14.3334C14.3334 1.71166 13.2887 0.666992 12 0.666992V2.66699ZM3.00004 3.00033C3.00004 3.18442 2.8508 3.33366 2.66671 3.33366V5.33366C3.95537 5.33366 5.00004 4.28899 5.00004 3.00033H3.00004ZM2.66671 3.33366C2.48261 3.33366 2.33337 3.18442 2.33337 3.00033H0.333374C0.333374 4.28899 1.37804 5.33366 2.66671 5.33366V3.33366ZM2.33337 3.00033C2.33337 2.81623 2.48261 2.66699 2.66671 2.66699V0.666992C1.37804 0.666992 0.333374 1.71166 0.333374 3.00033H2.33337ZM2.66671 2.66699C2.8508 2.66699 3.00004 2.81623 3.00004 3.00033H5.00004C5.00004 1.71166 3.95537 0.666992 2.66671 0.666992V2.66699Z" fill="#9FA0A3"/>
</svg>
