<svg width="26" height="30" viewBox="0 0 26 30" fill="none" xmlns="http://www.w3.org/2000/svg">
<path fill-rule="evenodd" clip-rule="evenodd" d="M12.9445 5.25195C8.00509 5.37817 4.09591 9.72216 4.20988 14.9581V18.8403C2.90939 18.9105 1.88892 20.0486 1.88892 21.4289C1.88892 22.8093 2.90939 23.9474 4.20988 24.0176H13" fill="#242AF0"/>
<path d="M12.9445 5.25195C8.00509 5.37817 4.09591 9.72216 4.20988 14.9581V18.8403C2.90939 18.9105 1.88892 20.0486 1.88892 21.4289C1.88892 22.8093 2.90939 23.9474 4.20988 24.0176H13" stroke="#242AF0" stroke-width="2" stroke-linecap="round" stroke-linejoin="round"/>
<path fill-rule="evenodd" clip-rule="evenodd" d="M13.0555 5.25195C17.9949 5.37817 21.9041 9.72216 21.7901 14.9581V18.8403C23.0906 18.9105 24.1111 20.0486 24.1111 21.4289C24.1111 22.8093 23.0906 23.9474 21.7901 24.0176H13" fill="#242AF0"/>
<path d="M13.0555 5.25195C17.9949 5.37817 21.9041 9.72216 21.7901 14.9581V18.8403C23.0906 18.9105 24.1111 20.0486 24.1111 21.4289C24.1111 22.8093 23.0906 23.9474 21.7901 24.0176H13" stroke="#242AF0" stroke-width="2" stroke-linecap="round" stroke-linejoin="round"/>
<path d="M11.3652 1.6483H14.524" stroke="#9FA0A3" stroke-width="2" stroke-linecap="round" stroke-linejoin="round"/>
<path d="M8.15378 24.0156C8.14914 25.0778 8.63939 26.0997 9.52034 26.864C10.3835 27.6164 11.5757 28.0417 12.8217 28.0417C14.0677 28.0417 15.2598 27.6164 16.123 26.864C17.004 26.0997 17.4942 25.0778 17.4896 24.0156" stroke="#242AF0" stroke-width="2" stroke-linecap="round" stroke-linejoin="round"/>
<path d="M11.3652 1.6483H14.524" stroke="#242AF0" stroke-width="2" stroke-linecap="round" stroke-linejoin="round"/>
<rect x="12" y="5" width="2" height="19" fill="#242AF0"/>
</svg>
