<svg width="26" height="30" viewBox="0 0 26 30" fill="none" xmlns="http://www.w3.org/2000/svg">
<path d="M8.15378 24.0157C8.14914 25.0779 8.63939 26.0997 9.52034 26.864C10.3835 27.6165 11.5757 28.0418 12.8217 28.0418C14.0677 28.0418 15.2598 27.6165 16.123 26.864C17.004 26.0997 17.4942 25.0779 17.4896 24.0157" stroke="#9FA0A3" stroke-width="2" stroke-linecap="round" stroke-linejoin="round"/>
<path d="M12.9445 5.2507C8.00509 5.37691 4.09591 9.7209 4.20988 14.9569V18.839C2.90939 18.9092 1.88892 20.0474 1.88892 21.4277C1.88892 22.808 2.90939 23.9462 4.20988 24.0163H13" stroke="#9FA0A3" stroke-width="2" stroke-linecap="round" stroke-linejoin="round"/>
<path d="M13.0555 5.2507C17.9949 5.37691 21.9041 9.7209 21.7901 14.9569V18.839C23.0906 18.9092 24.1111 20.0474 24.1111 21.4277C24.1111 22.808 23.0906 23.9462 21.7901 24.0163H13" stroke="#9FA0A3" stroke-width="2" stroke-linecap="round" stroke-linejoin="round"/>
<path d="M11.3652 1.6479H14.524" stroke="#9FA0A3" stroke-width="2" stroke-linecap="round" stroke-linejoin="round"/>
</svg>
