<svg width="24" height="24" viewBox="0 0 24 24" fill="none" xmlns="http://www.w3.org/2000/svg">
<path d="M12.7495 7C12.7495 6.58579 12.4137 6.25 11.9995 6.25C11.5853 6.25 11.2495 6.58579 11.2495 7H12.7495ZM11.2495 17C11.2495 17.4142 11.5853 17.75 11.9995 17.75C12.4137 17.75 12.7495 17.4142 12.7495 17H11.2495ZM11.9995 11.25C11.5853 11.25 11.2495 11.5858 11.2495 12C11.2495 12.4142 11.5853 12.75 11.9995 12.75V11.25ZM16.9995 12.75C17.4137 12.75 17.7495 12.4142 17.7495 12C17.7495 11.5858 17.4137 11.25 16.9995 11.25V12.75ZM6.99951 11.25C6.5853 11.25 6.24951 11.5858 6.24951 12C6.24951 12.4142 6.5853 12.75 6.99951 12.75V11.25ZM9.49951 12.75C9.91373 12.75 10.2495 12.4142 10.2495 12C10.2495 11.5858 9.91373 11.25 9.49951 11.25V12.75ZM11.2495 7V17H12.7495V7H11.2495ZM11.9995 12.75H16.9995V11.25H11.9995V12.75ZM6.99951 12.75H9.49951V11.25H6.99951V12.75Z" fill="#242428"/>
</svg>
