<svg width="18" height="18" viewBox="0 0 18 18" fill="none" xmlns="http://www.w3.org/2000/svg">
<path d="M13.8032 15.5748C14.0961 15.8677 14.571 15.8677 14.8639 15.5748C15.1568 15.2819 15.1568 14.807 14.8639 14.5142L13.8032 15.5748ZM11.3492 12.0602L11.8796 11.5298C11.7299 11.3802 11.5239 11.3007 11.3125 11.3111C11.1011 11.3214 10.9039 11.4207 10.7695 11.5843L11.3492 12.0602ZM12.0696 9.2064C11.9872 9.61233 12.2495 10.0082 12.6554 10.0906C13.0613 10.173 13.4572 9.91073 13.5396 9.5048L12.0696 9.2064ZM14.8639 14.5142L11.8796 11.5298L10.8189 12.5905L13.8032 15.5748L14.8639 14.5142ZM7.57796 12.8723C5.04666 12.8723 2.99463 10.8202 2.99463 8.28893H1.49463C1.49463 11.6487 4.21823 14.3723 7.57796 14.3723V12.8723ZM2.99463 8.28893C2.99463 5.75763 5.04666 3.7056 7.57796 3.7056V2.2056C4.21823 2.2056 1.49463 4.9292 1.49463 8.28893H2.99463ZM7.57796 3.7056C10.1093 3.7056 12.1613 5.75763 12.1613 8.28893H13.6613C13.6613 4.9292 10.9377 2.2056 7.57796 2.2056V3.7056ZM12.1613 8.28893C12.1613 8.60384 12.1296 8.91058 12.0696 9.2064L13.5396 9.5048C13.6195 9.11132 13.6613 8.70462 13.6613 8.28893H12.1613ZM7.57796 14.3723C8.98663 14.3723 10.0642 13.9286 10.7913 13.4792C11.1536 13.2552 11.4293 13.0296 11.6179 12.8561C11.7123 12.7692 11.7854 12.6948 11.8372 12.6394C11.8631 12.6117 11.8836 12.5888 11.8989 12.5713C11.9066 12.5625 11.9129 12.5552 11.9179 12.5493C11.9204 12.5463 11.9225 12.5437 11.9244 12.5415C11.9253 12.5404 11.9261 12.5394 11.9269 12.5385C11.9273 12.538 11.9276 12.5376 11.928 12.5372C11.9281 12.537 11.9284 12.5367 11.9285 12.5366C11.9287 12.5363 11.9289 12.536 11.3492 12.0602C10.7695 11.5843 10.7698 11.584 10.77 11.5838C10.77 11.5837 10.7702 11.5834 10.7704 11.5833C10.7706 11.583 10.7709 11.5827 10.7711 11.5824C10.7715 11.5819 10.7719 11.5814 10.7722 11.5811C10.7728 11.5804 10.7731 11.58 10.7731 11.58C10.7731 11.58 10.7719 11.5814 10.7695 11.5841C10.7648 11.5895 10.7554 11.6001 10.7414 11.6151C10.7132 11.6452 10.6667 11.6929 10.6021 11.7524C10.4724 11.8717 10.2719 12.0367 10.0026 12.2033C9.4662 12.5349 8.65818 12.8723 7.57796 12.8723V14.3723Z" fill="#9FA0A3"/>
</svg>
