<svg width="23" height="23" viewBox="0 0 23 23" fill="none" xmlns="http://www.w3.org/2000/svg">
<path d="M18.1364 19.0859C18.4293 19.3788 18.9042 19.3788 19.1971 19.0859C19.49 18.793 19.49 18.3182 19.1971 18.0253L18.1364 19.0859ZM14.9363 14.8252L15.4667 14.2949C15.317 14.1452 15.111 14.0657 14.8996 14.0761C14.6882 14.0865 14.491 14.1857 14.3567 14.3493L14.9363 14.8252ZM16.0206 11.2953C15.9382 11.7012 16.2004 12.0971 16.6064 12.1795C17.0123 12.2619 17.4082 11.9996 17.4906 11.5937L16.0206 11.2953ZM19.1971 18.0253L15.4667 14.2949L14.406 15.3555L18.1364 19.0859L19.1971 18.0253ZM10.2223 16.0278C6.95457 16.0278 4.30559 13.3788 4.30559 10.1112H2.80559C2.80559 14.2073 6.12614 17.5278 10.2223 17.5278V16.0278ZM4.30559 10.1112C4.30559 6.84347 6.95457 4.19449 10.2223 4.19449V2.69449C6.12614 2.69449 2.80559 6.01504 2.80559 10.1112H4.30559ZM10.2223 4.19449C13.4899 4.19449 16.1389 6.84347 16.1389 10.1112H17.6389C17.6389 6.01504 14.3184 2.69449 10.2223 2.69449V4.19449ZM16.1389 10.1112C16.1389 10.5174 16.0981 10.9133 16.0206 11.2953L17.4906 11.5937C17.5879 11.114 17.6389 10.6182 17.6389 10.1112H16.1389ZM10.2223 17.5278C11.942 17.5278 13.2554 16.9866 14.1403 16.4394C14.5816 16.1666 14.9168 15.8923 15.1452 15.6821C15.2595 15.5769 15.3476 15.4873 15.4093 15.4213C15.4402 15.3882 15.4645 15.361 15.4823 15.3407C15.4912 15.3305 15.4984 15.3221 15.5041 15.3154C15.5069 15.3121 15.5093 15.3092 15.5113 15.3068C15.5123 15.3056 15.5132 15.3046 15.5139 15.3036C15.5143 15.3031 15.5147 15.3027 15.5151 15.3023C15.5152 15.302 15.5155 15.3017 15.5156 15.3016C15.5158 15.3014 15.516 15.3011 14.9363 14.8252C14.3567 14.3493 14.3569 14.3491 14.3571 14.3488C14.3571 14.3487 14.3573 14.3485 14.3575 14.3483C14.3577 14.348 14.3579 14.3478 14.3581 14.3475C14.3585 14.347 14.3589 14.3467 14.3591 14.3464C14.3595 14.3459 14.3596 14.3458 14.3592 14.3462C14.3586 14.3469 14.3565 14.3494 14.3529 14.3536C14.3457 14.3618 14.3325 14.3766 14.3135 14.3969C14.2754 14.4377 14.2139 14.5006 14.1294 14.5785C13.9599 14.7344 13.6999 14.9482 13.3516 15.1636C12.6573 15.5928 11.6136 16.0278 10.2223 16.0278V17.5278Z" fill="#242428"/>
</svg>
