<svg width="18" height="19" viewBox="0 0 18 19" fill="none" xmlns="http://www.w3.org/2000/svg">
<path d="M1 16H0.25H1ZM1.75 11C1.75 10.5858 1.41421 10.25 1 10.25C0.585787 10.25 0.25 10.5858 0.25 11H1.75ZM3 18.75C3.41421 18.75 3.75 18.4142 3.75 18C3.75 17.5858 3.41421 17.25 3 17.25V18.75ZM17.75 11C17.75 10.5858 17.4142 10.25 17 10.25C16.5858 10.25 16.25 10.5858 16.25 11H17.75ZM17 16H17.75H17ZM15 18V17.25V18ZM7 17.25C6.58579 17.25 6.25 17.5858 6.25 18C6.25 18.4142 6.58579 18.75 7 18.75V17.25ZM12.4697 5.53033C12.7626 5.82322 13.2374 5.82322 13.5303 5.53033C13.8232 5.23744 13.8232 4.76256 13.5303 4.46967L12.4697 5.53033ZM9 1L9.53033 0.46967C9.31583 0.255171 8.99324 0.191005 8.71299 0.30709C8.43273 0.423176 8.25 0.696653 8.25 1L9 1ZM4.46967 4.46967C4.17678 4.76257 4.17678 5.23744 4.46967 5.53033C4.76256 5.82323 5.23744 5.82322 5.53033 5.53033L4.46967 4.46967ZM6.53033 4.53033C6.82322 4.23744 6.82322 3.76256 6.53033 3.46967C6.23744 3.17678 5.76256 3.17678 5.46967 3.46967L6.53033 4.53033ZM8.25 13C8.25 13.4142 8.58579 13.75 9 13.75C9.41421 13.75 9.75 13.4142 9.75 13H8.25ZM1.75 16L1.75 11H0.25L0.25 16H1.75ZM3 17.25C2.30964 17.25 1.75 16.6904 1.75 16H0.25C0.25 17.5188 1.48122 18.75 3 18.75V17.25ZM16.25 11V16H17.75V11H16.25ZM16.25 16C16.25 16.6904 15.6904 17.25 15 17.25V18.75C16.5188 18.75 17.75 17.5188 17.75 16H16.25ZM15 17.25H7V18.75H15V17.25ZM13.5303 4.46967L9.53033 0.46967L8.46967 1.53033L12.4697 5.53033L13.5303 4.46967ZM5.53033 5.53033L6.53033 4.53033L5.46967 3.46967L4.46967 4.46967L5.53033 5.53033ZM8.25 1L8.25 13H9.75L9.75 1L8.25 1Z" fill="#9FA0A3"/>
</svg>
