<svg width="32" height="32" viewBox="0 0 32 32" fill="none" xmlns="http://www.w3.org/2000/svg">
<path d="M5.33337 24H4.58337H5.33337ZM6.08337 17.3333C6.08337 16.9191 5.74759 16.5833 5.33337 16.5833C4.91916 16.5833 4.58337 16.9191 4.58337 17.3333L6.08337 17.3333ZM8.00004 27.4167C8.41425 27.4167 8.75004 27.0809 8.75004 26.6667C8.75004 26.2525 8.41425 25.9167 8.00004 25.9167V27.4167ZM27.4167 17.3333C27.4167 16.9191 27.0809 16.5833 26.6667 16.5833C26.2525 16.5833 25.9167 16.9191 25.9167 17.3333H27.4167ZM26.6667 24H27.4167H26.6667ZM24 26.6667V25.9167V26.6667ZM13.3334 25.9167C12.9192 25.9167 12.5834 26.2525 12.5834 26.6667C12.5834 27.0809 12.9192 27.4167 13.3334 27.4167V25.9167ZM20.803 9.86366C21.0959 10.1566 21.5708 10.1566 21.8637 9.86366C22.1566 9.57077 22.1566 9.0959 21.8637 8.803L20.803 9.86366ZM16 4L16.5304 3.46967C16.3159 3.25517 15.9933 3.191 15.713 3.30709C15.4328 3.42318 15.25 3.69665 15.25 4L16 4ZM10.1364 8.80301C9.84348 9.0959 9.84348 9.57077 10.1364 9.86367C10.4293 10.1566 10.9041 10.1566 11.197 9.86366L10.1364 8.80301ZM12.5304 8.53033C12.8233 8.23744 12.8233 7.76256 12.5304 7.46967C12.2375 7.17678 11.7626 7.17678 11.4697 7.46967L12.5304 8.53033ZM15.25 20C15.25 20.4142 15.5858 20.75 16 20.75C16.4143 20.75 16.75 20.4142 16.75 20H15.25ZM6.08337 24L6.08337 17.3333L4.58337 17.3333L4.58337 24H6.08337ZM8.00004 25.9167C6.94149 25.9167 6.08337 25.0585 6.08337 24H4.58337C4.58337 25.887 6.11307 27.4167 8.00004 27.4167V25.9167ZM25.9167 17.3333V24H27.4167V17.3333H25.9167ZM25.9167 24C25.9167 25.0585 25.0586 25.9167 24 25.9167V27.4167C25.887 27.4167 27.4167 25.887 27.4167 24H25.9167ZM24 25.9167H13.3334V27.4167H24V25.9167ZM21.8637 8.803L16.5304 3.46967L15.4697 4.53033L20.803 9.86366L21.8637 8.803ZM11.197 9.86366L12.5304 8.53033L11.4697 7.46967L10.1364 8.80301L11.197 9.86366ZM15.25 4L15.25 20H16.75L16.75 4L15.25 4Z" fill="#9FA0A3"/>
</svg>
