<svg width="8" height="8" viewBox="0 0 8 8" fill="none" xmlns="http://www.w3.org/2000/svg">
<path d="M2.6388 1.96387C2.77231 1.96387 2.90281 2.00346 3.01381 2.07763C3.12482 2.1518 3.21133 2.25722 3.26242 2.38056C3.31351 2.5039 3.32688 2.63962 3.30083 2.77055C3.27479 2.90149 3.2105 3.02176 3.1161 3.11616C3.0217 3.21057 2.90143 3.27485 2.77049 3.3009C2.63955 3.32694 2.50383 3.31358 2.38049 3.26249C2.25715 3.2114 2.15173 3.12488 2.07756 3.01388C2.00339 2.90287 1.9638 2.77237 1.9638 2.63887C1.9638 2.45985 2.03492 2.28816 2.16151 2.16157C2.28809 2.03498 2.45978 1.96387 2.6388 1.96387ZM4.3437 0.556659L6.04139 2.25435L6.19243 2.40539L7.4391 3.65206C7.60839 3.82173 7.70381 4.05139 7.7046 4.29106C7.70517 4.40867 7.68214 4.5252 7.6369 4.63376C7.59165 4.74232 7.5251 4.84071 7.44117 4.92311L7.44137 4.9233L4.92325 7.44142L4.92305 7.44123C4.84066 7.52515 4.74227 7.59171 4.63371 7.63695C4.52515 7.6822 4.40862 7.70522 4.291 7.70466C4.17327 7.70505 4.05662 7.6822 3.94773 7.63741C3.83885 7.59263 3.73988 7.52678 3.6565 7.44366L2.40532 6.1925L2.25428 6.04146L0.561094 4.34827C0.476784 4.26461 0.409905 4.16506 0.364332 4.05537C0.318759 3.94569 0.295395 3.82805 0.295595 3.70927V2.81378V1.19566C0.296282 0.957176 0.391324 0.728657 0.559958 0.560023C0.728592 0.391389 0.957111 0.296347 1.19559 0.295659H2.81371H3.70919C3.82693 0.295262 3.94358 0.318113 4.05247 0.362901C4.16135 0.40769 4.26032 0.473535 4.3437 0.556659ZM5.55793 3.03987L5.4069 2.88883L3.71371 1.19566H1.19559V3.71378L3.0398 5.558L4.29053 6.80873L6.80504 4.287L6.80459 4.28655L5.55793 3.03987Z" fill="#32ADD4"/>
</svg>
