<svg width="32" height="32" viewBox="0 0 32 32" fill="none" xmlns="http://www.w3.org/2000/svg">
<path d="M11.4167 18.667C11.4167 18.2528 11.0809 17.917 10.6667 17.917C10.2525 17.917 9.91671 18.2528 9.91671 18.667H11.4167ZM10.6667 26.667L10.6667 27.417H10.6667V26.667ZM25.7621 24.5233L25.0267 24.3762L25.7621 24.5233ZM27.3621 16.5233L28.0975 16.6704L27.3621 16.5233ZM18.6667 13.3336L18.0427 12.9176C17.8892 13.1478 17.8749 13.4437 18.0055 13.6875C18.136 13.9314 18.3901 14.0836 18.6667 14.0836V13.3336ZM21.9011 8.48212L22.5251 8.89815V8.89815L21.9011 8.48212ZM20.329 4.41588L20.1471 5.14348V5.14348L20.329 4.41588ZM20.2656 4.40002L20.4475 3.67241L20.4475 3.67241L20.2656 4.40002ZM10.6667 13.3336V14.0836C10.8857 14.0836 11.0937 13.988 11.2361 13.8217L10.6667 13.3336ZM5.33337 13.3336V12.5836C4.91916 12.5836 4.58337 12.9194 4.58337 13.3336H5.33337ZM5.33337 26.667H4.58337C4.58337 27.0812 4.91916 27.417 5.33337 27.417L5.33337 26.667ZM17.5941 5.25162L18.1636 5.73972L18.1636 5.73972L17.5941 5.25162ZM23.1472 25.917C22.733 25.917 22.3972 26.2528 22.3972 26.667C22.3972 27.0812 22.733 27.417 23.1472 27.417V25.917ZM16 27.417C16.4143 27.417 16.75 27.0812 16.75 26.667C16.75 26.2528 16.4143 25.917 16 25.917V27.417ZM9.91671 18.667V26.667H11.4167V18.667H9.91671ZM26.4975 24.6704L28.0975 16.6704L26.6267 16.3762L25.0267 24.3762L26.4975 24.6704ZM24.7472 12.5836H18.6667V14.0836H24.7472V12.5836ZM19.2907 13.7497L22.5251 8.89815L21.277 8.0661L18.0427 12.9176L19.2907 13.7497ZM20.5109 3.68827L20.4475 3.67241L20.0837 5.12763L20.1471 5.14348L20.5109 3.68827ZM10.6667 12.5836H5.33337V14.0836H10.6667V12.5836ZM4.58337 13.3336V26.667H6.08337V13.3336H4.58337ZM5.33337 27.417L10.6667 27.417L10.6667 25.917L5.33338 25.917L5.33337 27.417ZM20.4475 3.67241C19.192 3.35854 17.8669 3.78095 17.0247 4.76353L18.1636 5.73972C18.636 5.18851 19.3794 4.95155 20.0837 5.12763L20.4475 3.67241ZM22.5251 8.89815C23.8357 6.93223 22.8031 4.26132 20.5109 3.68827L20.1471 5.14348C21.433 5.46495 22.0122 6.96327 21.277 8.0661L22.5251 8.89815ZM28.0975 16.6704C28.5204 14.5562 26.9033 12.5836 24.7472 12.5836V14.0836C25.9567 14.0836 26.8639 15.1902 26.6267 16.3762L28.0975 16.6704ZM23.1472 27.417C24.7759 27.417 26.1781 26.2674 26.4975 24.6704L25.0267 24.3762C24.8475 25.2721 24.0609 25.917 23.1472 25.917V27.417ZM17.0247 4.76353L10.0973 12.8455L11.2361 13.8217L18.1636 5.73972L17.0247 4.76353ZM10.6667 27.417H16V25.917H10.6667V27.417Z" fill="#242AF0"/>
</svg>
