<svg width="25" height="25" viewBox="0 0 25 25" fill="none" xmlns="http://www.w3.org/2000/svg">
<path d="M10.6666 2.33334H7.73331C5.4931 2.33334 4.373 2.33334 3.51735 2.76932C2.7647 3.15281 2.15278 3.76473 1.76929 4.51738C1.33331 5.37303 1.33331 6.49313 1.33331 8.73334V17.2667C1.33331 19.5069 1.33331 20.627 1.76929 21.4826C2.15278 22.2353 2.7647 22.8472 3.51735 23.2307C4.373 23.6667 5.4931 23.6667 7.73331 23.6667H16.2666C18.5069 23.6667 19.627 23.6667 20.4826 23.2307C21.2353 22.8472 21.8472 22.2353 22.2307 21.4826C22.6666 20.627 22.6666 19.5069 22.6666 17.2667V13.6667M10.0254 15.5261L11.7784 15.1797C12.7243 14.9927 13.1973 14.8993 13.6384 14.7271C14.0298 14.5742 14.4019 14.3757 14.7468 14.1355C15.1353 13.8649 15.4762 13.524 16.158 12.8422L23.0226 5.97763C23.9389 5.06129 23.9389 3.57561 23.0226 2.65927C22.1063 1.74293 20.6206 1.74293 19.7042 2.65927L12.7223 9.64118C12.0834 10.2801 11.764 10.5995 11.506 10.9616C11.277 11.2831 11.0843 11.629 10.9316 11.993C10.7596 12.403 10.6562 12.8428 10.4494 13.7223L10.0254 15.5261Z" stroke="#9FA0A3" stroke-width="2" stroke-linecap="round" stroke-linejoin="round"/>
</svg>
