<svg width="25" height="25" viewBox="0 0 25 25" fill="none" xmlns="http://www.w3.org/2000/svg">
<path d="M19.7042 2.65894C20.6206 1.7426 22.1063 1.74259 23.0226 2.65893C23.9389 3.57527 23.9389 5.06095 23.0226 5.97729L16.158 12.8419C15.4762 13.5237 15.1353 13.8646 14.7467 14.1352C14.4019 14.3753 14.0298 14.5739 13.6384 14.7267C13.1973 14.8989 12.7243 14.9924 11.7784 15.1793L10.0254 15.5258L10.4494 13.722C10.6562 12.8424 10.7596 12.4026 10.9316 11.9926C11.0843 11.6287 11.277 11.2828 11.506 10.9613C11.764 10.5992 12.0834 10.2797 12.7223 9.64085L19.7042 2.65894Z" fill="#242AF0"/>
<path d="M10.6666 2.33301H7.73331C5.4931 2.33301 4.373 2.33301 3.51735 2.76898C2.7647 3.15248 2.15278 3.7644 1.76929 4.51705C1.33331 5.37269 1.33331 6.4928 1.33331 8.73301V17.2663C1.33331 19.5066 1.33331 20.6267 1.76929 21.4823C2.15278 22.2349 2.7647 22.8469 3.51735 23.2304C4.373 23.6663 5.4931 23.6663 7.73331 23.6663H16.2666C18.5069 23.6663 19.627 23.6663 20.4826 23.2304C21.2353 22.8469 21.8472 22.2349 22.2307 21.4823C22.6666 20.6267 22.6666 19.5066 22.6666 17.2663V13.6663M10.0254 15.5258L11.7784 15.1793C12.7243 14.9924 13.1973 14.8989 13.6384 14.7267C14.0298 14.5739 14.4019 14.3753 14.7468 14.1352C15.1353 13.8646 15.4762 13.5237 16.158 12.8419L23.0226 5.97729C23.9389 5.06095 23.9389 3.57527 23.0226 2.65893C22.1063 1.74259 20.6206 1.7426 19.7042 2.65894L12.7223 9.64085C12.0834 10.2797 11.764 10.5992 11.506 10.9613C11.277 11.2828 11.0843 11.6287 10.9316 11.9926C10.7596 12.4026 10.6562 12.8424 10.4494 13.722L10.0254 15.5258Z" stroke="#242AF0" stroke-width="2" stroke-linecap="round" stroke-linejoin="round"/>
</svg>
